# xmcd
#
# Track frame offsets: 
#        150
#        21300
#        40598
#        58860
#        77515
#        103629
#        128280
#        146423
#        166832
#        187824
#        206155
#        226320
#        243661
#        263813
#        280733
#        299436
#
# Disc length: 4240 seconds
#
# Revision: 1
# Processed by: cddbd v1.5.2PL0 Copyright (c) Steve Scherf et al.
# Submitted via: ExactAudioCopyFreeDBPlugin 1.0
#
DISCID=d9108e10
DTITLE=群星 - TEST-CD试音极品19CDB
DYEAR=2013
DGENRE=stereo
TTITLE0=爱值得
TTITLE1=陪我看日出
TTITLE2=伤情(梦里共醉)
TTITLE3=天长地久
TTITLE4=离别的车站
TTITLE5=不想让你哭
TTITLE6=星语星愿
TTITLE7=再次拥有
TTITLE8=朋友
TTITLE9=爱要怎么说出口
TTITLE10=爱情这杯酒谁喝都得醉
TTITLE11=骤雨中的阳光
TTITLE12=夜明月(当年情)
TTITLE13=海韵
TTITLE14=同桌的你
TTITLE15=那就是我
EXTD=
EXTT0=
EXTT1=
EXTT2=
EXTT3=
EXTT4=
EXTT5=
EXTT6=
EXTT7=
EXTT8=
EXTT9=
EXTT10=
EXTT11=
EXTT12=
EXTT13=
EXTT14=
EXTT15=
PLAYORDER=
